<svg height="512pt" viewBox="0 0 512 512" width="512pt" xmlns="http://www.w3.org/2000/svg" xmlns:xlink="http://www.w3.org/1999/xlink"><linearGradient id="a" gradientTransform="matrix(1 0 0 -1 0 -12310)" gradientUnits="userSpaceOnUse" x1="0" x2="512" y1="-12566" y2="-12566"><stop offset="0" stop-color="#00f38d"/><stop offset="1" stop-color="#009eff"/></linearGradient><path d="m512 256c0 141.386719-114.613281 256-256 256s-256-114.613281-256-256 114.613281-256 256-256 256 114.613281 256 256zm0 0" fill="url(#a)"/><g fill="#fff"><path d="m194.324219 241h222.175781v30h-222.175781zm0 0"/><path d="m194.324219 125.695312h222.175781v30h-222.175781zm0 0"/><path d="m194.324219 353.203125h222.175781v30h-222.175781zm0 0"/><path d="m113.117188 94.699219h30v91.992187h-30zm0 0"/><path d="m159.730469 272.617188h-17.886719c16.308594-19.1875 19.691406-27.566407 19.691406-34.59375 0-18.527344-15.074218-33.597657-33.597656-33.597657h-31.4375v30h31.4375c1.511719 0 2.84375.992188 3.363281 2.347657-3.472656 6.539062-18.15625 23.945312-33.078125 39.066406l-4.324218 4.382812v22.394532h65.832031zm0 0"/><path d="m96.5 349.109375h14.628906l-4.832031 4.742187v15.960938l8.191406 4.171875c6.433594 3.277344 13.683594 8.316406 16.609375 11.40625-.617187 1.125-1.816406 1.910156-3.164062 1.910156h-31.433594v30h31.4375c18.523438 0 33.597656-15.070312 33.597656-33.597656 0-11.441406-8.816406-20.015625-16.507812-25.832031l17.308594-16.980469v-21.78125h-65.835938zm0 0"/></g></svg>